<svg xmlns="http://www.w3.org/2000/svg" width="23" height="23" viewBox="0 0 23 23">
  <g fill="none" fill-rule="evenodd">
    <rect width="23" height="23" fill="#07B1EA" fill-rule="nonzero"/>
    <path fill="#FFF" fill-rule="nonzero" d="M19,7.7 C18.7,7.8 18.5,7.9 18.2,8 C17.9,8.1 17.6,8.1 17.4,8.2 C17.7,8 18,7.8 18.2,7.5 C18.4,7.2 18.6,6.9 18.7,6.6 C18.4,6.7 18.1,6.9 17.8,7 C17.5,7.1 17.2,7.2 16.8,7.3 C16.6,7 16.3,6.8 15.9,6.6 C15.6,6.4 15.2,6.4 14.7,6.4 C13.9,6.4 13.2,6.7 12.7,7.2 C12.2,7.7 11.9,8.5 11.9,9.3 C11.9,9.5 11.9,9.7 12,9.9 C10.7,9.8 9.6,9.5 8.6,9 C7.6,8.4 6.7,7.7 6,6.8 C5.7,7.3 5.6,7.8 5.6,8.3 C5.6,9.4 6,10.2 6.9,10.7 C6.4,10.7 6,10.6 5.6,10.4 C5.6,11.1 5.8,11.7 6.2,12.2 C6.6,12.7 7.2,13.1 7.8,13.2 C7.7,13.2 7.6,13.2 7.5,13.3 C7.4,13.3 7.2,13.3 7.1,13.3 C7,13.3 6.8,13.3 6.6,13.2 C6.8,13.8 7.1,14.2 7.6,14.6 C8.1,15 8.6,15.2 9.3,15.2 C8.3,16 7.1,16.4 5.7,16.4 L5,16.4 C5.6,16.8 6.3,17.1 7.1,17.3 C7.9,17.5 8.6,17.6 9.4,17.6 C10.7,17.6 11.9,17.4 12.9,16.9 C13.9,16.4 14.8,15.8 15.5,15 C16.2,14.2 16.7,13.3 17.1,12.4 C17.4,11.4 17.6,10.5 17.6,9.5 L17.6,9.2 C17.9,9 18.2,8.8 18.4,8.5 C18.6,8.2 18.8,7.9 19,7.7 Z"/>
  </g>
</svg>
