<?xml version="1.0" encoding="utf-8"?>
<!-- Generator: Adobe Illustrator 23.0.1, SVG Export Plug-In . SVG Version: 6.00 Build 0)  -->
<svg version="1.1" id="FxSymbol0-03c" focusable="false" xmlns:svg="http://www.w3.org/2000/svg"
	 xmlns="http://www.w3.org/2000/svg" xmlns:xlink="http://www.w3.org/1999/xlink" x="0px" y="0px" viewBox="0 0 50 50"
	 enable-background="new 0 0 50 50" xml:space="preserve">
<g>
	<title></title>
	<path fill="#0072C6" d="M6.7,28.6c0,2.4,2,4.5,4.6,4.8h29.6c5,0,9.1-3.8,9.1-8.5c0-4.8-4.1-8.5-9.1-8.5c-1.1,0-2,0.3-3,0.5
		c-1.8-5-6.8-8.5-12.6-8.5h-0.1c-7.4,0-13.3,5.6-13.3,12.4c0,1.1,0.3,2.3,0.5,3.3h-0.7C9,23.9,6.7,25.9,6.7,28.6"/>
	<path fill="#59B4D9" d="M0,34.9c0,2.7,2.2,5,5.1,5.3H38c5.6,0,10.1-4.2,10.1-9.5s-4.5-9.5-10.1-9.5c-1.2,0-2.3,0.3-3.3,0.6
		c-2-5.6-7.5-9.5-14-9.5h-0.1c-8.2,0-14.8,6.2-14.8,13.8c0,1.3,0.3,2.5,0.6,3.6H5.6C2.6,29.7,0,31.9,0,34.9"/>
	<path opacity="0.2" fill="#FFFFFF" enable-background="new    " d="M20.7,12.3h-0.1c-8.2,0-14.8,6.2-14.8,13.8
		c0,1.3,0.3,2.5,0.6,3.6H5.6c-3,0-5.6,2.2-5.6,5.2c0,2.7,2.2,5,5.1,5.3h0.8c-3-6.8,4.4-8.2,4.4-8.2c-0.7-16.7,15-18.6,15.4-18.8
		C24.2,12.6,22.5,12.3,20.7,12.3z"/>
	<path fill="#FFFFFF" d="M16.3,23.6h4.9l7.2,7.2l-9.5,9.4h-4.8l9.3-9.4L16.3,23.6z M27.3,12.9h5l5.7,5.8l-7.1,6.9h-4.6l6.7-7
		L27.3,12.9z M33.1,25.8H38l4.8,4.8l-6.6,6.5h-4.8l6.4-6.5L33.1,25.8z"/>
</g>
</svg>
