<?xml version="1.0" encoding="utf-8"?>
<!-- Generator: Adobe Illustrator 23.0.1, SVG Export Plug-In . SVG Version: 6.00 Build 0)  -->
<svg version="1.1" id="Layer_1" xmlns="http://www.w3.org/2000/svg" xmlns:xlink="http://www.w3.org/1999/xlink" x="0px" y="0px"
	 viewBox="0 0 298.5 302.3" enable-background="new 0 0 298.5 302.3" xml:space="preserve">
<path fill="#B92228" d="M256.6,36.4v27.9l-19.4,19.4l19.4,19.4v21.7c0,9.8-21.7,17.8-48.6,17.9v0h-0.7c-27.2,0-49.3-8-49.3-17.9
	V36.4H256.6z"/>
<path fill="#DC5B27" d="M207.2,36.4v106.4c-27.2,0-49.3-8-49.3-17.9V36.4H207.2z"/>
<path fill="#FFFFFF" d="M157.9,36.4c0,9.9,22.1,17.9,49.3,17.9c27.2,0,49.3-8,49.3-17.9c0-9.9-22.1-18-49.3-18
	C180,18.5,157.9,26.5,157.9,36.4"/>
<polygon fill="#B92228" points="271.6,61 278.7,68 263,83.7 278.7,99.4 271.6,106.5 248.9,83.7 "/>
<path fill="#E6BF20" d="M170.9,35.4c0,6.8,16.3,12.4,36.4,12.4c20.1,0,36.4-5.5,36.4-12.4c0-6.8-16.3-12.4-36.4-12.4
	C187.2,23.1,170.9,28.6,170.9,35.4"/>
<path fill="#F99B2C" d="M236.6,42.8c-6.6,3-17.2,5-29.2,5c-12,0-22.6-2-29.2-5c6.6-3,17.2-5,29.2-5
	C219.3,37.8,229.9,39.8,236.6,42.8z"/>
<path fill="#5BB2D8" d="M50,99.2v38.7l27,27l-27,27v30.1c0,13.7,30.1,24.7,67.5,24.9v0h0.9c37.8,0,68.4-11.2,68.4-24.9V99.2H50z"/>
<path fill="#3797C6" d="M118.5,99.2v147.7c37.8,0,68.4-11.2,68.4-24.9V99.2H118.5z"/>
<path fill="#FFFFFF" d="M186.9,99.2c0,13.8-30.6,24.9-68.4,24.9c-37.8,0-68.4-11.2-68.4-24.9c0-13.8,30.6-24.9,68.4-24.9
	C156.3,74.2,186.9,85.4,186.9,99.2"/>
<polygon fill="#5BB2D8" points="29.2,133.2 19.4,143 41.2,164.8 19.4,186.6 29.2,196.5 60.9,164.8 "/>
<path fill="#B7D234" d="M169.1,97.8c0,9.5-22.7,17.2-50.6,17.2c-27.9,0-50.6-7.7-50.6-17.2c0-9.5,22.7-17.2,50.6-17.2
	C146.4,80.6,169.1,88.3,169.1,97.8"/>
<path fill="#80B942" d="M77.9,108c9.2,4.2,23.9,6.9,40.5,6.9c16.6,0,31.3-2.7,40.5-6.9c-9.2-4.2-23.9-6.9-40.5-6.9
	S87.2,103.8,77.9,108z"/>
<g>
	<path fill="#0D74B8" d="M256.3,285.1H155.1c-2.2,0-4-1.8-4-4V167.1c0-2.2,1.8-4,4-4h101.2c2.2,0,4,1.8,4,4v114.1
		C260.3,283.4,258.5,285.1,256.3,285.1z"/>
	
		<line fill="none" stroke="#FFFFFF" stroke-width="8.9801" stroke-linecap="round" stroke-miterlimit="10" x1="173.3" y1="222.7" x2="217.8" y2="222.7"/>
	
		<line fill="none" stroke="#FFFFFF" stroke-width="8.9801" stroke-linecap="round" stroke-miterlimit="10" x1="173.3" y1="251.9" x2="228" y2="251.9"/>
	
		<line fill="none" stroke="#FFFFFF" stroke-width="8.9801" stroke-linecap="round" stroke-miterlimit="10" x1="173.3" y1="195.4" x2="238.1" y2="195.4"/>
</g>
</svg>
