<?xml version="1.0" encoding="utf-8"?>
<!-- Generator: Adobe Illustrator 23.0.1, SVG Export Plug-In . SVG Version: 6.00 Build 0)  -->
<svg version="1.1" id="Layer_1" xmlns="http://www.w3.org/2000/svg" xmlns:xlink="http://www.w3.org/1999/xlink" x="0px" y="0px"
	 viewBox="0 0 32 32" enable-background="new 0 0 32 32" xml:space="preserve">
<g>
	<path fill="#0072C6" d="M5.7,6.1v19.8c0,2.1,4.6,3.7,10.3,3.7V6.1L5.7,6.1z"/>
	<path fill="#0072C6" d="M15.9,29.6H16c5.7,0,10.3-1.7,10.3-3.7V6.1H15.9V29.6z"/>
	<path opacity="0.15" fill="#FFFFFF" enable-background="new    " d="M15.9,29.6H16c5.7,0,10.3-1.7,10.3-3.7V6.1H15.9V29.6z"/>
	<path fill="#FFFFFF" d="M26.3,6.1c0,2.1-4.6,3.7-10.3,3.7S5.7,8.2,5.7,6.1S10.3,2.4,16,2.4S26.3,4.1,26.3,6.1"/>
	<path fill="#7FBA00" d="M24.2,5.9c0,1.4-3.7,2.5-8.2,2.5S7.8,7.3,7.8,5.9c0-1.4,3.7-2.5,8.2-2.5S24.2,4.5,24.2,5.9"/>
	<path fill="#B8D432" d="M22.5,7.4c1.1-0.4,1.7-0.9,1.7-1.5c0-1.4-3.7-2.5-8.2-2.5c-4.5,0-8.2,1.1-8.2,2.5c0,0.6,0.6,1.1,1.7,1.5
		c1.5-0.6,3.8-1,6.5-1C18.6,6.4,21,6.8,22.5,7.4"/>
	<path fill="#A0A1A2" d="M28.1,16.2c-0.6-0.4-1.2-0.8-1.9-1.1v1.9c0.3,0.2,0.7,0.4,1,0.6c2.8,1.9,3.3,3,3.1,3.4
		c-0.1,0.4-1.2,1-4.6,0.7c-3.1-0.2-6.9-1.1-10.9-2.5c-4-1.4-7.6-3.1-10.1-4.8c-2.8-1.9-3.3-3-3.1-3.4v0c0.1-0.3,0.9-0.8,3.2-0.8
		c0.3,0,0.6,0,1,0V8.7c-3.2-0.2-5.1,0.5-5.6,1.9c-0.5,1.5,0.8,3.3,3.8,5.3c2.7,1.8,6.4,3.5,10.5,4.9c4.1,1.4,8.1,2.3,11.3,2.6
		c0.6,0,1.1,0.1,1.6,0.1c2.7,0,4.2-0.6,4.7-1.9C32.4,20,31.1,18.2,28.1,16.2z"/>
	<path fill="#A0A1A2" d="M31.9,10.5c-0.5-1.4-2.4-2-5.6-1.9v1.6c0.3,0,0.7,0,1,0c2.2,0,3.1,0.5,3.2,0.8c0.1,0.4-0.4,1.6-3.1,3.4
		c-2.5,1.7-6.1,3.4-10.1,4.8c-4,1.4-7.9,2.3-10.9,2.5C2.9,22,1.8,21.3,1.6,21v0c-0.1-0.4,0.4-1.6,3.1-3.4c0.3-0.2,0.6-0.4,1-0.6
		v-1.9c-0.7,0.4-1.3,0.8-1.9,1.1c-3,2-4.3,3.8-3.8,5.3c0.4,1.3,2,1.9,4.7,1.9c0.5,0,1,0,1.6-0.1c3.2-0.2,7.2-1.2,11.3-2.6
		c4.1-1.4,7.8-3.2,10.5-4.9C31.1,13.8,32.4,12,31.9,10.5z"/>
	<path opacity="0.35" fill="#FFFFFF" enable-background="new    " d="M31.9,10.5c-0.5-1.4-2.4-2-5.6-1.9v1.6c0.3,0,0.7,0,1,0
		c2.2,0,3.1,0.5,3.2,0.8c0.1,0.4-0.4,1.6-3.1,3.4c-2.5,1.7-6.1,3.4-10.1,4.8c-4,1.4-7.9,2.3-10.9,2.5C2.9,22,1.8,21.3,1.6,21v0
		c-0.1-0.4,0.4-1.6,3.1-3.4c0.3-0.2,0.6-0.4,1-0.6v0c-0.5-0.3-1-0.6-1.5-0.9c-0.1,0.1-0.2,0.1-0.3,0.2c-3,2-4.3,3.8-3.8,5.3
		c0.4,1.3,2,1.9,4.7,1.9c0.5,0,1,0,1.6-0.1c3.2-0.2,7.2-1.2,11.3-2.6c4.1-1.4,7.8-3.2,10.5-4.9C31.1,13.8,32.4,12,31.9,10.5z"/>
</g>
</svg>
