<?xml version="1.0" encoding="utf-8"?>
<!-- Generator: Adobe Illustrator 23.0.1, SVG Export Plug-In . SVG Version: 6.00 Build 0)  -->
<svg version="1.1" xmlns="http://www.w3.org/2000/svg" xmlns:xlink="http://www.w3.org/1999/xlink" x="0px" y="0px"
	 viewBox="0 0 310 310" enable-background="new 0 0 310 310" xml:space="preserve">
<g id="Layer_2" display="none">
	<g display="inline">
		<path fill="#672A7A" d="M176.4,191.8l49.3-49.3V62c0-19.3-43.2-35-96.6-35c-53.3,0-96.6,15.7-96.6,35v186
			c0,19.2,42.5,34.7,95.2,35v0h1c0.1,0,0.2,0,0.3,0v0c53.3,0,96.6-15.7,96.6-35v-6.9L176.4,191.8z"/>
		<path fill="#FFFFFF" d="M129.1,27c53.3,0,96.6,15.7,96.6,35v80.5l-49.3,49.3l49.3,49.3v6.9c0,19.3-43.2,35-96.6,35v0
			c-0.1,0-0.2,0-0.3,0h-1v0c-52.7-0.3-95.2-15.8-95.2-35V62C32.6,42.7,75.8,27,129.1,27 M129.1,19c-26.7,0-51.9,3.8-71,10.7
			C30.4,39.8,24.6,52.8,24.6,62v186c0,9.1,5.7,22,33.1,32.1c16.9,6.2,38.7,9.9,62.1,10.7v0.2l8,0h1c0.1,0,0.2,0,0.3,0h8v-0.1
			c23.7-0.7,45.8-4.4,63-10.6c27.7-10,33.6-23.1,33.6-32.3v-6.9v-3.3v-92v-3.3V62c0-9.2-5.8-22.2-33.6-32.3
			C181.1,22.8,155.8,19,129.1,19L129.1,19z"/>
	</g>
	<g display="inline">
		<polygon fill="#672A7A" points="290.3,149.3 270.7,129.6 207.5,192.8 270.7,256 290.3,236.4 246.8,192.8 		"/>
		<path fill="#FFFFFF" d="M270.7,129.6l19.6,19.6l-43.6,43.6l43.5,43.6L270.7,256l-63.2-63.2L270.7,129.6 M270.7,118.3L265,124
			l-63.2,63.2l-5.7,5.7l5.7,5.7l63.2,63.2l5.7,5.7l5.7-5.7L296,242l5.7-5.7l-5.7-5.7l-37.9-37.9l37.9-37.9l5.7-5.7l-5.7-5.7
			L276.3,124L270.7,118.3L270.7,118.3z"/>
	</g>
</g>
<g id="Layer_3" display="none">
	<path display="inline" fill="#FFFFFF" d="M261.3,198.6l42.4-42.4l6.3-6.3l-6.3-6.3l-22-22l-6.3-6.3l-6.3,6.3l-35,35V146v-3.7V52.2
		c0-10.3-6.5-24.8-37.6-36.1c-21.4-7.7-49.6-12-79.5-12c-29.9,0-58.1,4.3-79.4,12C6.5,27.4,0,42,0,52.2v208.2
		c0,10.2,6.4,24.7,37,35.9c18.9,6.9,43.3,11.1,69.5,12v0.2l9,0h1.1c0.1,0,0.3,0,0.4,0h9v-0.1c26.5-0.8,51.3-4.9,70.5-11.9
		c31-11.2,37.6-25.8,37.6-36.1v-7.7V249v-8.4l35,35l6.3,6.3l6.3-6.3l22-22l6.3-6.3l-6.3-6.3L261.3,198.6z M248.6,198.6l48.7-48.7h0
		L248.6,198.6z M286.4,138.9l-11-11l0,0L286.4,138.9z M136.1,298.9c1.8-0.1,3.5-0.2,5.3-0.4C139.7,298.7,137.9,298.8,136.1,298.9z
		 M168.5,294.8c-1.5,0.3-3.1,0.6-4.7,0.9C165.4,295.4,167,295.1,168.5,294.8c1.5-0.3,3-0.6,4.5-0.9
		C171.5,294.2,170,294.5,168.5,294.8z M175.2,293.4c1.5-0.3,2.9-0.7,4.3-1.1C178.1,292.7,176.7,293,175.2,293.4z M197,286.7
		c-1.7,0.7-3.6,1.4-5.4,2C193.4,288.1,195.2,287.4,197,286.7c1.7-0.7,3.4-1.4,5-2.2C200.4,285.3,198.7,286,197,286.7z M215.5,276.5
		c-1.8,1.4-3.8,2.8-6.1,4.2c-0.9,0.5-1.8,1.1-2.8,1.6c1-0.5,1.9-1,2.8-1.6C211.7,279.4,213.7,278,215.5,276.5
		c0.7-0.6,1.4-1.2,2.1-1.8C216.9,275.4,216.2,275.9,215.5,276.5z M219.4,273c0.6-0.6,1.1-1.2,1.6-1.8
		C220.5,271.8,219.9,272.4,219.4,273z M222.9,268.3c0.4-0.6,0.7-1.3,1-1.9C223.5,267,223.2,267.7,222.9,268.3z M275.4,269.3
		L275.4,269.3l22-22v0L275.4,269.3z"/>
</g>
<g id="Layer_1">
	<path fill="#1889CA" d="M211,234v6.2c0,17.4-39,31.5-87,31.5v0c-0.1,0-0.2,0-0.2,0h-0.9v0C75.3,271.4,37,257.4,37,240.2V72.5
		c0-17.4,39-31.5,87-31.5c48.1,0,87,14.1,87,31.5v72.5l-44.4,44.4L211,234z"/>
	<polygon fill="#FFFFFF" points="110,94.9 92.3,112.6 131.5,151.8 92.3,191.1 110,208.8 166.9,151.8 	"/>
	<polygon fill="#1889CA" points="269,151.2 251.3,133.5 194.3,190.4 251.3,247.3 269,229.6 229.7,190.4 	"/>
</g>
<g id="Layer_4" display="none">
</g>
</svg>
