<?xml version="1.0" encoding="utf-8"?>
<!-- Generator: Adobe Illustrator 23.0.1, SVG Export Plug-In . SVG Version: 6.00 Build 0)  -->
<svg version="1.1" id="Layer_1" xmlns="http://www.w3.org/2000/svg" xmlns:xlink="http://www.w3.org/1999/xlink" x="0px" y="0px"
	 viewBox="0 0 512.8 512.8" enable-background="new 0 0 512.8 512.8" xml:space="preserve">
<path fill="#2172B9" d="M453.3,201.7h-7.2c4.1-13.3,5.1-27.7,5.1-42C452.3,71.6,380.5,0,293.3,0c-69.7,0-129.2,45.1-149.7,108.5
	c-11.3-4.1-22.6-6.1-34.9-6.1C48.2,102.4,0,151.6,0,211.9c0,60.1,47.7,108,106.8,108.5v-50.2c0-49.5,83.1-72,160.2-72
	s160.2,22.5,160.2,72v50.3h30.1c31.8-3,55.4-28.7,55.4-59.4C512.8,228.3,486.1,201.7,453.3,201.7z"/>
<path fill="#5AB4DA" d="M128.2,270.2v192c0,27.7,61.2,50.2,137,50.5v0h1.5h0.4c76.7,0,138.9-22.7,138.9-50.6v-192H128.2z"/>
<path fill="#3899C7" d="M267.1,270.2v242.6c76.7,0,138.9-22.7,138.9-50.6v-192H267.1z"/>
<path fill="#B8D433" d="M405.9,270.2c0,27.9-62.2,50.6-138.9,50.6c-76.7,0-138.9-22.7-138.9-50.6c0-28,62.2-50.6,138.9-50.6
	C343.8,219.6,405.9,242.2,405.9,270.2"/>
<g opacity="0.2">
	<path fill="#EDF0F1" d="M42.7,247.5c0-63.9,51.8-115.8,115.7-115.8c19.8,0,38.4,5,54.7,13.8c27.5-48.6,79.6-81.4,139.4-81.4
		c29.8,0,57.6,8.3,81.5,22.5C407.8,35.2,354.3,0,293.3,0c-69.7,0-129.2,45.1-149.7,108.5c-11.3-4.1-22.6-6.1-34.9-6.1
		C48.2,102.4,0,151.6,0,211.9c0,43.2,24.9,79.8,60.7,97.4C49.4,291.4,42.7,270.2,42.7,247.5z"/>
</g>
<polygon fill="#FFFFFF" points="267.1,64.1 181.6,149.6 235,149.6 235,277.8 299.1,277.8 299.1,149.6 352.5,149.6 "/>
</svg>
