<svg xmlns="http://www.w3.org/2000/svg" viewBox="0 0 256 256"><title>SSMA_Global-DAMT-Icon</title><path d="M221.5641,35.272V65.4894L200.52783,86.52907l21.03627,21.03627v23.50461c0,10.65512-23.52438,19.28835-52.67287,19.43224v.01634h-.73041c-29.49345,0-53.40342-8.71294-53.40342-19.44858V35.272Z" style="fill:#9e9e9e"/><path d="M167.99458,35.272V150.51855c-29.49342,0-53.40334-8.713-53.40334-19.44867V35.272Z" style="fill:#d8d8d8"/><path d="M114.59127,35.272c0,10.73489,23.9099,19.44867,53.40333,19.44867,29.49374,0,53.40334-8.71378,53.40334-19.44867,0-10.75132-23.90958-19.4651-53.40334-19.4651-29.49342,0-53.40334,8.71378-53.40334,19.4651" style="fill:#fff"/><polygon points="237.812 61.842 245.482 69.514 228.472 86.527 245.482 103.538 237.812 111.209 213.131 86.527 237.812 61.842" style="fill:#9e9e9e"/><path d="M128.67146,34.17453c0,7.39137,17.6803,13.39114,39.48936,13.39114,21.8093,0,39.48936-5.99976,39.48936-13.39114,0-7.40269-17.68005-13.40245-39.48936-13.40245-21.80905,0-39.48936,5.99976-39.48936,13.40245" style="fill:#d3d3d3"/><path d="M199.80168,42.16044c-7.1992,3.27412-18.67223,5.4052-31.64088,5.4052s-24.44142-2.13108-31.64075-5.4052c7.19934-3.2764,18.67223-5.40747,31.64075-5.40747S192.60246,38.884,199.80168,42.16044Z" style="fill:#707070"/><path d="M37.302,108.72584v34.98722l24.35685,24.36073L37.302,192.43063v27.2148c0,12.337,27.23771,22.333,60.9873,22.49962v.01892h.8457c34.149,0,61.83317-10.08829,61.83317-22.51854V108.72584Z" style="fill:#5ab3d9"/><path d="M99.135,108.72579V242.164c34.149,0,61.833-10.0883,61.833-22.51865V108.72579Z" style="fill:#3898c6"/><path d="M160.968,108.72579c0,12.42939-27.68408,22.51864-61.833,22.51864-34.14935,0-61.833-10.08925-61.833-22.51864,0-12.44842,27.6837-22.53767,61.833-22.53767,34.149,0,61.833,10.08925,61.833,22.53767" style="fill:#fff"/><polygon points="18.49 139.49 9.608 148.373 29.304 168.072 9.608 187.768 18.49 196.649 47.067 168.072 18.49 139.49" style="fill:#5ab3d9"/><path d="M144.85774,107.45508c0,8.5581-20.47113,15.50493-45.72276,15.50493-25.2519,0-45.72276-6.94683-45.72276-15.50493,0-8.5712,20.47085-15.518,45.72276-15.518,25.25162,0,45.72276,6.94683,45.72276,15.518" style="fill:#b7d333"/><path d="M62.4996,116.70157C70.8352,120.4925,84.11923,122.96,99.135,122.96c15.01562,0,28.2995-2.46747,36.63525-6.25841-8.33575-3.79358-21.61963-6.261-36.63525-6.261S70.8352,112.908,62.4996,116.70157Z" style="fill:#7fba42"/></svg>