<svg xmlns="http://www.w3.org/2000/svg" width="23" height="23" viewBox="0 0 23 23">
  <g fill="none" fill-rule="evenodd">
    <rect width="23" height="23" fill="#305CAF" fill-rule="nonzero"/>
    <path fill="#FFF" fill-rule="nonzero" d="M14.2983227,7.5658846 C13.8691235,7.5651522 13.4396801,7.5669222 13.0104809,7.5651522 C12.7385082,7.5481844 12.4589672,7.7544222 12.4094067,8.0241976 C12.403059,8.4929476 12.4072094,8.9619417 12.4074536,9.4306917 C13.0368481,9.4332552 13.6662427,9.4298982 14.2956372,9.4322786 C14.2494946,10.1103792 14.1655102,10.785367 14.0666333,11.4577303 C13.5107251,11.4629183 12.9545728,11.457181 12.3986645,11.460599 C12.3937817,13.460538 12.4011059,15.460538 12.3947583,17.4604779 C11.5688306,17.4638348 10.7426587,17.458891 9.916731,17.4627972 C9.901106,15.4625521 9.9181958,13.4613314 9.9081861,11.4609042 C9.5053541,11.4566928 9.1022779,11.4637729 8.6994459,11.4574862 C8.7009107,10.7851229 8.6999342,10.1127596 8.7001783,9.4406405 C9.102766,9.4356966 9.5055981,9.441678 9.908186,9.4377718 C9.9206372,8.7841463 9.895979,8.1297274 9.9211255,7.4765902 C9.9614087,6.9593783 10.1584302,6.4383212 10.5451489,6.0810214 C11.0131665,5.6354648 11.6786938,5.4849521 12.3066235,5.4662143 C12.970686,5.4602329 13.6345044,5.4638339 14.2985669,5.4641391 C14.3010082,6.1646395 14.3014965,6.8653841 14.2983227,7.5658846 Z"/>
  </g>
</svg>
