<svg xmlns="http://www.w3.org/2000/svg" width="25" height="25" viewBox="0 0 25 25">
  <g fill="none" fill-rule="evenodd" transform="translate(.5 .5)">
    <rect width="23.226" height="23.226" x=".387" y=".387" fill="#1E1E1E" fill-rule="nonzero"/>
    <path fill="#FFF" fill-rule="nonzero" d="M12,3.48387097 C7.29832258,3.48387097 3.48387097,7.29832258 3.48387097,12 C3.48387097,16.707871 7.29832258,20.516129 12,20.516129 C16.7016774,20.516129 20.516129,16.707871 20.516129,12 C20.516129,7.29832258 16.7016774,3.48387097 12,3.48387097 Z M14.252129,19.3935484 L14.252129,17.9388387 C14.252129,17.3775484 13.9455484,16.8797419 13.4740645,16.5669677 C13.5058065,16.5607742 13.5445161,16.5545806 13.5824516,16.5545806 C14.3922581,16.4523871 15.1261935,16.1976774 15.1261935,16.1976774 C15.1261935,16.1976774 16.1790968,15.8725161 16.7465806,15.2090323 C17.3465806,14.5076129 17.4990968,13.467871 17.4990968,13.467871 C17.4990968,13.467871 17.6965161,12.332129 17.4990968,11.451871 C17.3016774,10.5909677 16.6699355,9.99096774 16.6699355,9.99096774 C16.6699355,9.99096774 16.8867097,9.42967742 16.8673548,8.84283871 C16.848,8.28154839 16.5863226,7.69470968 16.5863226,7.69470968 C16.5863226,7.69470968 16.0885161,7.64980645 15.5589677,7.85419355 C14.9148387,8.10270968 14.2126452,8.60670968 14.2126452,8.60670968 C14.2126452,8.60670968 13.7218065,8.44722581 13.1473548,8.37058065 C12.6178065,8.29393548 11.9992258,8.28774194 11.9992258,8.28774194 C11.9992258,8.28774194 11.3806452,8.29393548 10.8510968,8.37058065 C10.2766452,8.44722581 9.78580645,8.60670968 9.78580645,8.60670968 C9.78580645,8.60670968 9.09058065,8.10270968 8.43948387,7.85419355 C7.91767742,7.64903226 7.41367742,7.69393548 7.41367742,7.69393548 C7.41367742,7.69393548 7.15819355,8.28077419 7.1396129,8.84206452 C7.12025806,9.42890323 7.33703226,9.99019355 7.33703226,9.99019355 C7.33703226,9.99019355 6.69909677,10.5894194 6.50787097,11.4510968 C6.30348387,12.3313548 6.50787097,13.4670968 6.50787097,13.4670968 C6.50787097,13.4670968 6.66116129,14.5068387 7.25419355,15.2082581 C7.82167742,15.8717419 8.88077419,16.1969032 8.88077419,16.1969032 C8.88077419,16.1969032 9.60774194,16.4523871 10.4183226,16.5538065 C10.4562581,16.5538065 10.4949677,16.56 10.5329032,16.5661935 C10.0606452,16.8789677 9.74864516,17.376 9.74864516,17.9380645 L9.74864516,19.3927742 C6.57832258,18.4296774 4.27509677,15.4823226 4.27509677,11.9992258 C4.27509677,7.73187097 7.73264516,4.27432258 12,4.27432258 C16.2673548,4.27432258 19.731871,7.73187097 19.731871,11.9992258 C19.731871,15.4830968 17.4224516,18.4304516 14.252129,19.3935484 Z"/>
  </g>
</svg>
