<svg xmlns="http://www.w3.org/2000/svg" width="16" height="16" viewBox="0 0 16 16">
  <path fill="#0072C6" d="M15,6 C15.1352539,6 15.2641602,6.02612305 15.3867188,6.078125 C15.5090332,6.1303711 15.6157227,6.2019043 15.7070312,6.29296875 C15.7980957,6.38427735 15.8696289,6.4909668 15.921875,6.61328125 C15.9738769,6.73583985 16,6.8647461 16,7 L16,14 L12,14 L12,16 L4,16 L4,14 L0,14 L0,7 C0,6.8647461 0.0258789,6.73583985 0.078125,6.61328125 C0.13012695,6.4909668 0.20166015,6.38427735 0.29296875,6.29296875 C0.3840332,6.2019043 0.49072265,6.1303711 0.61328125,6.078125 C0.7355957,6.02612305 0.86450195,6 1,6 L4,6 L4,0 L12,0 L12,6 L15,6 Z M15,7 L1,7 L1,13 L4,13 L4,10 L12,10 L12,13 L15,13 L15,7 Z M2.5,8 C2.6352539,8 2.7524414,8.04956055 2.8515625,8.1484375 C2.95043945,8.2475586 3,8.3647461 3,8.5 C3,8.63549805 2.95043945,8.75268555 2.8515625,8.8515625 C2.7524414,8.9506836 2.6352539,9 2.5,9 C2.36450195,9 2.24731445,8.9506836 2.1484375,8.8515625 C2.0493164,8.75268555 2,8.63549805 2,8.5 C2,8.3647461 2.0493164,8.2475586 2.1484375,8.1484375 C2.24731445,8.04956055 2.36450195,8 2.5,8 Z M5,6 L11,6 L11,1 L5,1 L5,6 Z M11,11 L5,11 L5,15 L11,15 L11,11 Z"/>
</svg>
