<svg xmlns="http://www.w3.org/2000/svg" width="16" height="16" viewBox="0 0 16 16">
  <path fill="#0072C6" d="M10.8387097,9.29032258 L16,9.29032258 L16,14.4516129 L10.8387097,14.4516129 L10.8387097,12.3870968 L7.48387097,12.3870968 L4.12903226,15.7419355 L0.258064516,11.8709677 L3.61290323,8.51612903 L3.61290323,5.16129032 L1.5483871,5.16129032 L1.5483871,0 L6.70967742,0 L6.70967742,5.16129032 L4.64516129,5.16129032 L4.64516129,8.51612903 L7.48387097,11.3548387 L10.8387097,11.3548387 L10.8387097,9.29032258 Z M4.12903226,14.1935484 L6.4516129,11.8709677 L4.12903226,9.5483871 L1.80645161,11.8709677 L4.12903226,14.1935484 Z M2.58064516,1.03225806 L2.58064516,4.12903226 L5.67741935,4.12903226 L5.67741935,1.03225806 L2.58064516,1.03225806 Z M14.9677419,13.4193548 L14.9677419,10.3225806 L11.8709677,10.3225806 L11.8709677,13.4193548 L14.9677419,13.4193548 Z"/>
</svg>
