<svg xmlns="http://www.w3.org/2000/svg" width="16" height="16" viewBox="0 0 16 16">
  <path fill="#FFF" d="M10.7540984,9.44262295 L16,9.44262295 L16,14.6885246 L10.7540984,14.6885246 L10.7540984,12.5901639 L7.3442623,12.5901639 L3.93442623,16 L0,12.0655738 L3.40983607,8.6557377 L3.40983607,5.24590164 L1.31147541,5.24590164 L1.31147541,0 L6.55737705,0 L6.55737705,5.24590164 L4.45901639,5.24590164 L4.45901639,8.6557377 L7.3442623,11.5409836 L10.7540984,11.5409836 L10.7540984,9.44262295 Z M3.93442623,14.4262295 L6.29508197,12.0655738 L3.93442623,9.70491803 L1.57377049,12.0655738 L3.93442623,14.4262295 Z M2.36065574,1.04918033 L2.36065574,4.19672131 L5.50819672,4.19672131 L5.50819672,1.04918033 L2.36065574,1.04918033 Z M14.9508197,13.6393443 L14.9508197,10.4918033 L11.8032787,10.4918033 L11.8032787,13.6393443 L14.9508197,13.6393443 Z"/>
</svg>
