<svg xmlns="http://www.w3.org/2000/svg" width="16" height="16" viewBox="0 0 16 16">
  <path fill="#0072C6" d="M4.5,0 C4.911,0 5.309,0.054 5.691,0.16 C6.073,0.266 6.432,0.418 6.765,0.613 C7.098,0.808 7.403,1.044 7.679,1.32 C7.955,1.596 8.191,1.901 8.386,2.234 C8.581,2.567 8.732,2.925 8.839,3.308 C8.946,3.691 9,4.089 9,4.5 C9,4.938 8.942,5.333 8.828,5.688 C8.713,6.042 8.562,6.367 8.375,6.661 C8.188,6.955 7.974,7.227 7.734,7.477 C7.495,7.727 7.25,7.969 7,8.203 C6.75,8.437 6.505,8.671 6.266,8.902 C6.026,9.134 5.812,9.38 5.625,9.641 C5.438,9.902 5.286,10.183 5.172,10.485 C5.057,10.786 5,11.125 5,11.5 L5,13 L4,13 L4,11.5 C4,11.062 4.057,10.667 4.172,10.312 C4.286,9.958 4.438,9.634 4.625,9.34 C4.812,9.046 5.026,8.775 5.266,8.528 C5.505,8.28 5.75,8.039 6,7.805 C6.25,7.571 6.495,7.336 6.734,7.102 C6.973,6.868 7.187,6.621 7.375,6.36 C7.563,6.099 7.713,5.818 7.828,5.516 C7.942,5.214 8,4.875 8,4.5 C8,4.016 7.907,3.562 7.723,3.137 C7.538,2.712 7.288,2.343 6.973,2.028 C6.658,1.713 6.288,1.463 5.864,1.278 C5.438,1.093 4.984,1 4.5,1 C4.016,1 3.561,1.093 3.137,1.277 C2.712,1.462 2.343,1.712 2.028,2.027 C1.713,2.342 1.463,2.712 1.278,3.136 C1.092,3.562 1,4.016 1,4.5 L0,4.5 C0,4.089 0.053,3.691 0.16,3.309 C0.266,2.926 0.418,2.568 0.613,2.235 C0.808,1.902 1.044,1.597 1.32,1.32 C1.596,1.044 1.901,0.808 2.234,0.613 C2.567,0.418 2.926,0.267 3.309,0.16 C3.692,0.053 4.088,0 4.5,0 Z M4,15 L5,15 L5,16 L4,16 L4,15 Z" transform="translate(4)"/>
</svg>
