<svg xmlns="http://www.w3.org/2000/svg" width="16" height="16" viewBox="0 0 16 16">
  <path fill="#0072C6" d="M14.852,10.398 C15.028,10.513 15.188,10.647 15.332,10.8 C15.475,10.954 15.596,11.122 15.695,11.304 C15.793,11.487 15.869,11.679 15.922,11.882 C15.973,12.086 16,12.292 16,12.5 C16,12.844 15.934,13.167 15.801,13.469 C15.668,13.772 15.488,14.035 15.262,14.262 C15.036,14.489 14.77,14.668 14.469,14.801 C14.166,14.934 13.844,15 13.5,15 C13.02,15 12.578,14.873 12.172,14.617 C11.572,15.07 10.914,15.414 10.199,15.648 C9.482,15.883 8.75,16 8,16 C7.25,16 6.516,15.883 5.801,15.648 C5.084,15.414 4.426,15.07 3.828,14.617 C3.422,14.873 2.979,15 2.5,15 C2.156,15 1.833,14.934 1.531,14.801 C1.229,14.668 0.965,14.488 0.738,14.262 C0.511,14.036 0.332,13.772 0.199,13.469 C0.066,13.167 0,12.844 0,12.5 C0,12.292 0.026,12.086 0.078,11.883 C0.13,11.68 0.205,11.487 0.305,11.305 C0.404,11.123 0.525,10.955 0.668,10.801 C0.811,10.648 0.971,10.514 1.148,10.399 C1.096,10.165 1.058,9.932 1.035,9.7 C1.012,9.468 1,9.234 1,9 C1,8.281 1.108,7.585 1.324,6.91 C1.54,6.236 1.845,5.611 2.238,5.035 C2.631,4.46 3.104,3.951 3.656,3.508 C4.208,3.065 4.823,2.716 5.5,2.461 C5.504,2.123 5.574,1.804 5.707,1.504 C5.84,1.205 6.02,0.944 6.247,0.723 C6.474,0.502 6.737,0.326 7.04,0.196 C7.34,0.065 7.661,0 8,0 C8.338,0 8.658,0.065 8.961,0.195 C9.261,0.325 9.527,0.501 9.753,0.722 C9.98,0.944 10.159,1.204 10.292,1.503 C10.425,1.803 10.493,2.122 10.499,2.46 C11.175,2.715 11.79,3.064 12.343,3.507 C12.894,3.95 13.366,4.459 13.761,5.034 C14.154,5.61 14.458,6.235 14.675,6.909 C14.891,7.585 15,8.281 15,9 C15,9.234 14.988,9.468 14.965,9.699 C14.941,9.932 14.902,10.164 14.852,10.398 Z M1,12.5 C1,12.709 1.039,12.904 1.117,13.086 C1.195,13.269 1.302,13.428 1.437,13.563 C1.572,13.699 1.731,13.805 1.914,13.883 C2.096,13.961 2.292,14 2.5,14 C2.708,14 2.903,13.961 3.086,13.883 C3.268,13.805 3.427,13.698 3.563,13.563 C3.698,13.428 3.805,13.269 3.883,13.086 C3.961,12.904 4,12.709 4,12.5 C4,12.292 3.961,12.097 3.883,11.914 C3.805,11.732 3.698,11.573 3.563,11.437 C3.427,11.302 3.269,11.195 3.086,11.117 C2.903,11.039 2.708,11 2.5,11 C2.292,11 2.096,11.039 1.914,11.117 C1.731,11.195 1.573,11.303 1.437,11.437 C1.301,11.573 1.195,11.732 1.117,11.914 C1.039,12.097 1,12.292 1,12.5 Z M8,15 C8.613,15 9.214,14.908 9.8,14.723 C10.386,14.538 10.931,14.269 11.437,13.914 C11.296,13.706 11.187,13.48 11.113,13.238 C11.037,12.996 11,12.75 11,12.5 C11,12.156 11.066,11.834 11.199,11.531 C11.332,11.229 11.512,10.965 11.738,10.738 C11.964,10.511 12.228,10.332 12.531,10.199 C12.832,10.066 13.156,10 13.5,10 C13.566,10 13.635,10.003 13.703,10.008 C13.769,10.014 13.838,10.022 13.906,10.031 C13.969,9.688 14,9.344 14,9 C14,8.391 13.912,7.804 13.738,7.238 C13.562,6.673 13.316,6.15 12.996,5.668 C12.676,5.187 12.287,4.757 11.832,4.379 C11.375,4.002 10.867,3.695 10.305,3.461 C10.211,3.69 10.084,3.9 9.926,4.09 C9.766,4.28 9.586,4.443 9.383,4.578 C9.18,4.714 8.961,4.818 8.727,4.891 C8.493,4.964 8.25,5 8,5 C7.75,5 7.508,4.964 7.274,4.891 C7.04,4.818 6.821,4.714 6.618,4.578 C6.415,4.443 6.233,4.28 6.075,4.09 C5.915,3.9 5.79,3.69 5.696,3.461 C5.133,3.695 4.624,4.001 4.168,4.379 C3.712,4.757 3.324,5.187 3.004,5.668 C2.684,6.15 2.436,6.673 2.262,7.238 C2.087,7.804 2,8.391 2,9 C2,9.344 2.031,9.688 2.094,10.031 C2.469,9.968 2.832,9.99 3.184,10.094 C3.536,10.198 3.845,10.366 4.114,10.598 C4.382,10.83 4.597,11.11 4.759,11.438 C4.919,11.766 5,12.12 5,12.5 C5,12.75 4.961,12.996 4.886,13.238 C4.81,13.48 4.702,13.706 4.562,13.914 C5.066,14.268 5.613,14.538 6.199,14.723 C6.786,14.908 7.385,15 8,15 Z M8,1 C7.792,1 7.596,1.039 7.415,1.117 C7.231,1.195 7.073,1.302 6.938,1.437 C6.801,1.573 6.696,1.731 6.618,1.914 C6.54,2.097 6.5,2.292 6.5,2.5 C6.5,2.708 6.539,2.904 6.617,3.086 C6.695,3.269 6.801,3.427 6.937,3.563 C7.072,3.699 7.23,3.805 7.414,3.883 C7.596,3.961 7.792,4 8,4 C8.207,4 8.402,3.961 8.586,3.883 C8.768,3.805 8.926,3.698 9.062,3.563 C9.197,3.428 9.304,3.269 9.382,3.086 C9.461,2.904 9.5,2.708 9.5,2.5 C9.5,2.292 9.461,2.097 9.383,1.914 C9.305,1.732 9.197,1.573 9.063,1.437 C8.927,1.302 8.769,1.195 8.587,1.117 C8.403,1.039 8.208,1 8,1 Z M13.5,14 C13.707,14 13.902,13.961 14.086,13.883 C14.268,13.805 14.426,13.698 14.563,13.563 C14.698,13.428 14.805,13.269 14.883,13.086 C14.961,12.904 15,12.709 15,12.5 C15,12.292 14.961,12.097 14.883,11.914 C14.805,11.732 14.697,11.573 14.563,11.437 C14.426,11.302 14.268,11.195 14.086,11.117 C13.902,11.039 13.707,11 13.5,11 C13.291,11 13.096,11.039 12.914,11.117 C12.73,11.195 12.572,11.303 12.437,11.437 C12.3,11.573 12.195,11.732 12.117,11.914 C12.039,12.097 12,12.292 12,12.5 C12,12.709 12.039,12.904 12.117,13.086 C12.195,13.269 12.301,13.428 12.437,13.563 C12.572,13.699 12.73,13.805 12.914,13.883 C13.096,13.961 13.291,14 13.5,14 Z"/>
</svg>
