<svg xmlns="http://www.w3.org/2000/svg" width="16" height="16" viewBox="0 0 16 16">
  <path fill="#FFF" d="M16,2.617 C16,2.961 15.935,3.294 15.805,3.617 C15.675,3.94 15.485,4.226 15.235,4.476 L4.945,14.766 L0,16 L1.234,11.055 L11.523,0.766 C11.773,0.516 12.059,0.326 12.382,0.196 C12.705,0.066 13.039,0 13.383,0 C13.742,0 14.081,0.069 14.399,0.207 C14.717,0.345 14.994,0.533 15.231,0.77 C15.468,1.007 15.655,1.284 15.794,1.602 C15.933,1.92 16,2.258 16,2.617 Z M2.547,11.156 C3.099,11.338 3.574,11.629 3.973,12.027 C4.372,12.425 4.662,12.901 4.844,13.453 L13.289,5 L11,2.711 L2.547,11.156 Z M1.375,14.625 L3.945,13.984 C3.893,13.744 3.808,13.518 3.691,13.304 C3.574,13.09 3.432,12.9 3.265,12.734 C3.098,12.568 2.908,12.425 2.695,12.308 C2.482,12.191 2.255,12.106 2.015,12.054 L1.375,14.625 Z M14,4.289 C14.13,4.159 14.255,4.036 14.375,3.922 C14.495,3.808 14.602,3.686 14.695,3.559 C14.788,3.432 14.863,3.293 14.918,3.145 C14.973,2.997 15,2.823 15,2.625 C15,2.401 14.957,2.191 14.871,1.996 C14.785,1.801 14.668,1.629 14.52,1.48 C14.372,1.331 14.2,1.214 14.004,1.128 C13.808,1.042 13.599,1 13.375,1 C13.177,1 13.004,1.027 12.855,1.082 C12.706,1.137 12.569,1.211 12.441,1.305 C12.313,1.399 12.192,1.506 12.078,1.625 C11.964,1.744 11.841,1.87 11.711,2 L14,4.289 Z"/>
</svg>
