<svg xmlns="http://www.w3.org/2000/svg" xmlns:xlink="http://www.w3.org/1999/xlink" viewBox="0 0 96 96"><defs><linearGradient id="linear-gradient" x1="48" y1="92.07" x2="48" y2="5.56" gradientUnits="userSpaceOnUse"><stop offset="0" stop-color="#006cc9"/><stop offset="1" stop-color="#005ba4"/></linearGradient><linearGradient id="linear-gradient-2" y1="48.81" x2="96" y2="48.81" gradientUnits="userSpaceOnUse"><stop offset="0" stop-color="#fff"/><stop offset="1" stop-color="#fff" stop-opacity="0"/></linearGradient></defs><title>Artboard 50</title><g id="Icons"><path d="M50.83,6.73a4.06,4.06,0,0,0-1.49-.93,3.86,3.86,0,0,0-2.68,0,4.06,4.06,0,0,0-1.49.93L8.82,43.08v45a4,4,0,0,0,4,4H83.17a4,4,0,0,0,4-4v-45Z" style="fill:url(#linear-gradient)"/><path d="M58.83,60H37.16A2.09,2.09,0,0,0,35,62V92.07H61V62A2.09,2.09,0,0,0,58.83,60Z" style="fill:#47a4ed"/><path d="M94.83,50.73h0l-44-44a4,4,0,0,0-5.66,0l-44,44a4,4,0,1,0,5.66,5.66h0L48,15.22,89.17,56.39a4,4,0,1,0,5.66-5.66Z" style="fill:#0078d7;fill-rule:evenodd"/><path d="M94.83,50.73h0l-7.66-7.66h0L50.83,6.73a4.58,4.58,0,0,0-.7-.55l0,0a3.69,3.69,0,0,0-.75-.36h0a5.39,5.39,0,0,0-.66-.18,3.88,3.88,0,0,0-1.36,0,4.81,4.81,0,0,0-.65.18h0a3.69,3.69,0,0,0-.75.36l0,0a4.58,4.58,0,0,0-.7.55L8.82,43.08,1.17,50.73a4,4,0,1,0,5.66,5.66h0l2-2V88.07a4,4,0,0,0,4,4H83.17a4,4,0,0,0,4-4V54.39l2,2a4,4,0,1,0,5.66-5.66Z" style="fill-rule:evenodd;opacity:0.200000002980232;isolation:isolate;fill:url(#linear-gradient-2)"/></g></svg>