<?xml version="1.0" encoding="UTF-8"?>
<svg width="16px" height="16px" viewBox="0 0 16 16" version="1.1" xmlns="http://www.w3.org/2000/svg" xmlns:xlink="http://www.w3.org/1999/xlink">
    <!-- Generator: sketchtool 49.3 (51167) - http://www.bohemiancoding.com/sketch -->
    <title>36EC888F-76C6-4286-BF33-6B93983EBCC4</title>
    <desc>Created with sketchtool.</desc>
    <defs></defs>
    <g id="Symbols" stroke="none" stroke-width="1" fill="none" fill-rule="evenodd">
        <g id="Icons/success" fill="#6BB700" fill-rule="nonzero">
            <g id="135-status-success">
                <path d="M15.6501333,5.88373333 C15.4613333,5.2064 15.1925333,4.57173333 14.8458667,3.97973333 C14.4981333,3.38773333 14.0832,2.85013333 13.6,2.36693333 C13.1168,1.88373333 12.5792,1.4688 11.9872,1.12106667 C11.3952,0.7744 10.7605333,0.5056 10.0832,0.3168 C9.40586667,0.128 8.7008,0.0330666667 7.96693333,0.0330666667 C7.23306667,0.0330666667 6.528,0.128 5.85066667,0.315733333 C5.17226667,0.504533333 4.53866667,0.773333333 3.94666667,1.12 C3.35466667,1.46773333 2.81706667,1.88266667 2.33386667,2.36586667 C1.85066667,2.84906667 1.43466667,3.38666667 1.088,3.97866667 C0.740266667,4.57066667 0.471466667,5.20533333 0.283733333,5.88373333 C0.0938666667,6.56106667 0,7.26613333 0,8 C0,8.73386667 0.0938666667,9.44 0.283733333,10.1173333 C0.472533333,10.7957333 0.740266667,11.4293333 1.088,12.0213333 C1.43466667,12.6122667 1.85066667,13.1498667 2.33386667,13.6330667 C2.81706667,14.1162667 3.35466667,14.5322667 3.94666667,14.8789333 C4.53866667,15.2266667 5.17226667,15.4944 5.85066667,15.6832 C6.528,15.8730667 7.23413333,15.9669333 7.96693333,15.9669333 C8.69973333,15.9669333 9.4048,15.8730667 10.0832,15.6832 C10.7605333,15.4944 11.3952,15.2266667 11.9872,14.8789333 C12.5792,14.5322667 13.1168,14.1162667 13.6,13.6330667 C14.0832,13.1498667 14.4981333,12.6122667 14.8458667,12.0202667 C15.1925333,11.4282667 15.4613333,10.7946667 15.6501333,10.1162667 C15.8389333,9.44 15.9338667,8.7328 15.9338667,8 C15.9338667,7.2672 15.8389333,6.56213333 15.6501333,5.88373333 Z M6.36693333,11.4250667 L2.79146667,7.84213333 L3.54133333,7.0912 L6.36693333,9.90826667 L11.8581333,4.42453333 L12.608,5.17546667 L6.36693333,11.4250667 Z" id="Shape"></path>
            </g>
        </g>
    </g>
</svg>