<svg xmlns="http://www.w3.org/2000/svg" width="16" height="16" viewBox="0 0 16 16">
  <g fill="#0072C6" transform="translate(2)">
    <path d="M1.5,0 C0.67285155,0 0,0.67285155 0,1.5 L0,14.5 C0,15.3271484 0.67285155,16 1.5,16 L13,16 L13,15.5 L13,15 L13,0 L1.5,0 Z M1.5,15 C1.22436525,15 1,14.7756348 1,14.5 C1,14.2243652 1.22436525,14 1.5,14 L12,14 L12,15 L1.5,15 Z M1,1.5 C1,1.22436525 1.22436525,1 1.5,1 L12,1 L12,13 L1.5,13 C1.323822,13 1.15716555,13.0361023 1,13.0921326 L1,1.5 Z"/>
    <path d="M3,3 L3,6.5 L10,6.5 L10,3 L3,3 Z M9,5.5 L4,5.5 L4,4 L9,4 L9,5.5 Z"/>
  </g>
</svg>
