<svg xmlns="http://www.w3.org/2000/svg" viewBox="0 0 113.82 94.9"><defs><style>.cls-1{fill:#a0a1a2;}.cls-2{fill:#b8d432;}</style></defs><title>Asset 2</title><g id="Layer_2" data-name="Layer 2"><g id="Layer_5" data-name="Layer 5"><path class="cls-1" d="M108.32,53.55H38.21c-3,0-5.5-2.55-5.5-4.87s2.49-4.23,5.5-4.23h70.11c3.07,0,5.5,1.91,5.5,4.23S111.4,53.55,108.32,53.55Z"/><path class="cls-1" d="M108.32,18.06H38.21c-3,0-5.5-2.55-5.5-4.87S35.2,9,38.21,9h70.11c3.07,0,5.5,1.91,5.5,4.24S111.4,18.06,108.32,18.06Z"/><path class="cls-1" d="M108.38,89.05H38.21c-3,0-5.5-2.55-5.5-4.87s2.49-4.24,5.5-4.24h70.17c3,0,5.44,1.87,5.44,4.24S111.4,89.05,108.38,89.05Z"/><polygon class="cls-2" points="0 11.96 0 11.96 3.98 7.97 3.98 7.97 3.98 7.97 11.95 15.94 27.89 0 27.89 0 27.89 0 31.87 3.99 31.87 3.99 31.87 3.99 11.95 23.91 0 11.96"/><polygon class="cls-2" points="0 47.45 0 47.45 3.98 43.47 3.98 43.47 3.98 43.47 11.95 51.44 27.89 35.5 27.89 35.5 27.89 35.5 31.87 39.48 31.87 39.48 31.87 39.48 11.95 59.41 0 47.45"/><polygon class="cls-2" points="0 82.95 0 82.95 3.98 78.96 3.98 78.96 3.98 78.96 11.95 86.93 27.89 70.99 27.89 70.99 27.89 70.99 31.87 74.98 31.87 74.98 31.87 74.98 11.95 94.91 0 82.95"/></g></g></svg>