<svg xmlns="http://www.w3.org/2000/svg" viewBox="0 0 104.37 119.48"><defs><style>.cls-1{fill:#3997c4;}.cls-2{fill:#5ab2d7;}.cls-3{fill:#fff;}.cls-4{fill:#7eb800;}.cls-5{fill:#b6d233;}.cls-6{fill:#7a7a7a;}.cls-7{fill:#f1f1f1;opacity:0.2;isolation:isolate;}</style></defs><title>Asset 3</title><g id="Layer_2" data-name="Layer 2"><g id="Layer_5" data-name="Layer 5"><path class="cls-1" d="M0,14.49V91.58c0,8,17.91,14.49,40,14.49V14.49Z"/><path class="cls-2" d="M39.46,106.07H40c22.1,0,40-6.49,40-14.49V14.49H39.46Z"/><path class="cls-3" d="M80,14.49C80,22.49,62.11,29,40,29S0,22.49,0,14.49,17.91,0,40,0,80,6.49,80,14.49"/><path class="cls-4" d="M71.84,13.66c0,5.28-14.25,9.56-31.83,9.56S8.18,18.94,8.18,13.66,22.43,4.09,40,4.09s31.83,4.28,31.83,9.57"/><path class="cls-5" d="M65.17,19.5c4.17-1.62,6.67-3.64,6.67-5.84C71.84,8.38,57.59,4.1,40,4.1S8.18,8.38,8.18,13.66c0,2.2,2.5,4.22,6.67,5.84,5.82-2.26,14.91-3.72,25.16-3.72s19.34,1.46,25.16,3.72"/><path class="cls-1" d="M21.93,52.87H18.29V73.69H22a10,10,0,0,0,7.59-3,11.06,11.06,0,0,0,2.68-7.8,10,10,0,0,0-2.64-7.28c-1.82-1.85-4.36-2.78-7.67-2.78"/><path class="cls-2" d="M58.67,59a3.84,3.84,0,0,0,1.33-3c0-2.43-1.77-3.64-5.38-3.64H51.85v7.77h3.27A5.42,5.42,0,0,0,58.67,59"/><path class="cls-2" d="M59.89,66.69a6.61,6.61,0,0,0-4-1.13h-4v8.65h4A6.41,6.41,0,0,0,59.92,73a4.07,4.07,0,0,0,1.42-3.24,3.65,3.65,0,0,0-1.45-3.07"/><path class="cls-6" d="M104.37,94.18V87.71l-.91-.34L96.54,85.1l-1.82-4.43,3.52-7.48L93.7,68.65l-.91.45-6.46,3.29L81.9,70.58l-2.84-7.83H72.6l-.34.9L70,70.58l-4.43,1.81-7.37-3.52-4.54,4.54.45.91,3.29,6.47-1.81,4.42-7.95,2.84v6.47l.91.34,6.92,2.27,1.82,4.42L53.76,109l4.54,4.54.91-.45,6.47-3.29,4.42,1.81,2.84,7.83h6.47l.34-.91L82,111.65l4.42-1.81,7.49,3.51,4.54-4.54-.46-.9-3.29-6.47L96.54,97ZM76,98.49a7.38,7.38,0,1,1,7.38-7.38A7.36,7.36,0,0,1,76,98.49Z"/><path class="cls-7" d="M92.68,69.1l-6.35,3.29L81.9,70.58l-2.84-7.83H72.6l-.34.9L70,70.58l-4.43,1.81-7.49-3.52-4.54,4.54.46.91,3.29,6.47-1.82,4.42-7.83,2.84v6.47l.91.34,6.92,2.27,1.82,4.42L53.76,109l4.54,4.54.91-.45,2.72-1.36,4-5.45h0l6.36-8.85A7.38,7.38,0,0,1,76,83.74a7.2,7.2,0,0,1,4.88,1.81l6.58-9.07h0Z"/></g></g></svg>