<svg xmlns="http://www.w3.org/2000/svg" viewBox="0 0 100.36 114.89"><defs><style>.cls-1{fill:#3997c4;}.cls-2{fill:#5ab2d7;}.cls-3{fill:#fff;}.cls-4{fill:#7eb800;}.cls-5{fill:#b6d233;}.cls-6{fill:#b8d432;}</style></defs><title>Asset 6</title><g id="Layer_2" data-name="Layer 2"><g id="Layer_5" data-name="Layer 5"><path class="cls-1" d="M0,13.93V88.06C0,95.76,17.23,102,38.47,102V13.93Z"/><path class="cls-2" d="M38,102h.52C59.72,102,77,95.76,77,88.06V13.93H38Z"/><path class="cls-3" d="M77,13.93c0,7.7-17.23,13.94-38.48,13.94S0,21.63,0,13.93,17.23,0,38.47,0,77,6.24,77,13.93"/><path class="cls-4" d="M69.08,13.13c0,5.08-13.7,9.2-30.61,9.2S7.86,18.21,7.86,13.13,21.57,3.94,38.47,3.94s30.61,4.11,30.61,9.19"/><path class="cls-5" d="M62.67,18.75c4-1.55,6.42-3.5,6.42-5.61,0-5.09-13.71-9.2-30.62-9.2s-30.6,4.11-30.6,9.2c0,2.11,2.4,4.06,6.41,5.61,5.6-2.17,14.34-3.57,24.19-3.57s18.6,1.4,24.2,3.57"/><path class="cls-1" d="M21.08,50.84H17.59v20h3.53A9.62,9.62,0,0,0,28.43,68,10.65,10.65,0,0,0,31,60.52a9.67,9.67,0,0,0-2.53-7c-1.75-1.78-4.2-2.67-7.39-2.67"/><path class="cls-2" d="M56.42,56.71a3.68,3.68,0,0,0,1.28-2.92c0-2.34-1.71-3.5-5.17-3.5H49.85v7.47H53a5.18,5.18,0,0,0,3.42-1"/><path class="cls-2" d="M57.59,64.13A6.3,6.3,0,0,0,53.73,63H49.85v8.32H53.7a6.1,6.1,0,0,0,3.92-1.17A3.87,3.87,0,0,0,59,67.08a3.48,3.48,0,0,0-1.39-3"/><rect class="cls-6" x="45.81" y="60.34" width="54.56" height="54.56" rx="18.5"/><polygon class="cls-3" points="57.7 86.6 57.7 86.6 61.72 82.58 61.72 82.58 61.72 82.58 69.76 90.62 85.85 74.53 85.85 74.53 85.85 74.53 89.87 78.55 89.87 78.55 89.87 78.55 69.76 98.67 57.7 86.6"/></g></g></svg>