<svg xmlns="http://www.w3.org/2000/svg" viewBox="0 0 97.98 110.34"><defs><style>.cls-1,.cls-5,.cls-6{fill:#59b4d9;}.cls-2{fill:#1fa1c9;}.cls-3{fill:#fff;}.cls-4{fill:#3e3e3e;}.cls-5{opacity:0.1;}.cls-5,.cls-6,.cls-7{isolation:isolate;}.cls-6{opacity:0.3;}.cls-7{fill:#1e1e1e;opacity:0.5;}</style></defs><title>Asset 1</title><g id="Layer_2" data-name="Layer 2"><g id="Layer_5" data-name="Layer 5"><path class="cls-1" d="M0,.53V84.94H78.09V12.13L63.85,0Z"/><polygon class="cls-2" points="77.91 11.96 65.43 11.96 65.43 1.28 64.04 0 62.27 0 62.27 15.13 78.09 15.13 78.09 12.12 77.91 11.96"/><path class="cls-3" d="M24.27,41.47h-1.6V29.38a4.43,4.43,0,0,1-.54.43,8,8,0,0,1-.8.47,10.24,10.24,0,0,1-.94.44,6.36,6.36,0,0,1-1,.32V29.42A10.58,10.58,0,0,0,20.55,29c.39-.17.78-.36,1.16-.56s.74-.41,1.08-.63a8.08,8.08,0,0,0,.88-.66h.6Z"/><path class="cls-3" d="M37.92,34.42a13.62,13.62,0,0,1-.31,3.11,7.53,7.53,0,0,1-.92,2.28,4.11,4.11,0,0,1-1.48,1.42,4,4,0,0,1-2,.48,3.85,3.85,0,0,1-1.88-.46A4.08,4.08,0,0,1,30,39.9a6.6,6.6,0,0,1-.85-2.18,13.34,13.34,0,0,1-.3-3,15.25,15.25,0,0,1,.31-3.23,7.44,7.44,0,0,1,.9-2.36,4,4,0,0,1,1.48-1.43,4.19,4.19,0,0,1,2-.49C36.46,27.25,37.92,29.64,37.92,34.42Zm-1.64.15q0-6-2.83-6-3,0-3,6.08c0,3.78,1,5.66,2.94,5.67S36.28,38.42,36.28,34.57Z"/><path class="cls-3" d="M45.8,41.47H44.2V29.38a3.29,3.29,0,0,1-.54.43,8,8,0,0,1-.8.47,10,10,0,0,1-.93.44A7.2,7.2,0,0,1,41,31V29.42A10.41,10.41,0,0,0,42.08,29c.39-.17.78-.36,1.16-.56s.74-.41,1.08-.63a8.08,8.08,0,0,0,.88-.66h.6Z"/><path class="cls-3" d="M59.45,34.42a13.62,13.62,0,0,1-.31,3.11,7.53,7.53,0,0,1-.92,2.28,3.93,3.93,0,0,1-3.46,1.9,3.87,3.87,0,0,1-1.88-.46A4,4,0,0,1,51.5,39.9a6.85,6.85,0,0,1-.86-2.18,13.34,13.34,0,0,1-.3-3,15.25,15.25,0,0,1,.31-3.23,7.69,7.69,0,0,1,.9-2.36A4,4,0,0,1,53,27.74a4.19,4.19,0,0,1,2-.49C58,27.25,59.45,29.64,59.45,34.42Zm-1.63.15q0-6-2.84-6-3,0-3,6.08c0,3.78,1,5.66,2.94,5.67s2.89-1.93,2.89-5.78Z"/><path class="cls-3" d="M27.16,54.39a13.58,13.58,0,0,1-.32,3.11,7.32,7.32,0,0,1-.91,2.29,4.25,4.25,0,0,1-1.48,1.41,4,4,0,0,1-2,.48,3.7,3.7,0,0,1-1.87-.46,3.91,3.91,0,0,1-1.39-1.35,6.85,6.85,0,0,1-.86-2.18,13.3,13.3,0,0,1-.29-2.95,14.65,14.65,0,0,1,.31-3.24,7.21,7.21,0,0,1,.9-2.36,3.88,3.88,0,0,1,3.5-1.91Q27.16,47.22,27.16,54.39Zm-1.64.15c0-4-.95-6-2.84-6s-3,2-3,6.07q0,5.67,2.93,5.67t2.9-5.78Z"/><path class="cls-3" d="M37.92,54.39a13.57,13.57,0,0,1-.31,3.11,7.59,7.59,0,0,1-.92,2.29,4.17,4.17,0,0,1-1.48,1.41,4,4,0,0,1-2,.48,3.74,3.74,0,0,1-1.88-.46A4.08,4.08,0,0,1,30,59.87a6.6,6.6,0,0,1-.85-2.18,13.31,13.31,0,0,1-.3-2.95,15.28,15.28,0,0,1,.31-3.24,7.44,7.44,0,0,1,.9-2.36,3.91,3.91,0,0,1,3.5-1.91C36.46,47.22,37.92,49.61,37.92,54.39Zm-1.64.15c0-4-.94-6-2.83-6s-3,2-3,6.07q0,5.67,2.94,5.67T36.28,54.54Z"/><path class="cls-3" d="M45.8,61.44H44.2V49.36a3.87,3.87,0,0,1-.54.42,8,8,0,0,1-.8.47,10,10,0,0,1-.93.44A7.2,7.2,0,0,1,41,51V49.39A10.41,10.41,0,0,0,42.08,49c.39-.17.78-.35,1.16-.56s.74-.41,1.08-.63a8.08,8.08,0,0,0,.88-.66h.6Z"/><path class="cls-3" d="M59.45,54.39a13.57,13.57,0,0,1-.31,3.11,7.59,7.59,0,0,1-.92,2.29,4.09,4.09,0,0,1-1.48,1.41,4,4,0,0,1-2,.48,3.77,3.77,0,0,1-1.88-.46,4,4,0,0,1-1.38-1.35,6.85,6.85,0,0,1-.86-2.18,13.31,13.31,0,0,1-.3-2.95,15.28,15.28,0,0,1,.31-3.24,7.69,7.69,0,0,1,.9-2.36,3.91,3.91,0,0,1,3.5-1.91C58,47.22,59.45,49.61,59.45,54.39Zm-1.63.15c0-4-1-6-2.84-6s-3,2-3,6.07q0,5.67,2.94,5.67t2.89-5.78Z"/><path class="cls-4" d="M94.59,58.31A23.36,23.36,0,0,0,54.36,82.05l-17.88,18A6,6,0,1,0,45,108.55l17.8-17.94A23,23,0,0,0,69,93.13a23.66,23.66,0,0,0,5.61.68,23.4,23.4,0,0,0,20-35.5Z"/><path class="cls-3" d="M90.48,74.33A16.35,16.35,0,0,1,74.58,86.8a16.83,16.83,0,0,1-3.93-.47,16.26,16.26,0,0,1-5.36-2.44,16.63,16.63,0,0,1-4.23-4.26,16.38,16.38,0,1,1,29.42-5.3"/><path class="cls-5" d="M90.48,74.33A16.35,16.35,0,0,1,74.58,86.8a16.83,16.83,0,0,1-3.93-.47,16.26,16.26,0,0,1-5.36-2.44,16.63,16.63,0,0,1-4.23-4.26,16.38,16.38,0,1,1,29.42-5.3"/><path class="cls-6" d="M83.43,56.64A16.22,16.22,0,0,0,78.5,54.5,16.36,16.36,0,0,0,61.06,79.63a17.48,17.48,0,0,0,1.49,1.85A43.17,43.17,0,0,1,83.43,56.64"/><path class="cls-7" d="M61.32,89.66a23.44,23.44,0,0,1-6-6.08c-.33-.5-.62-1-.92-1.53l-1.68,1.7-.19.18c.23.36.45.72.69,1.07a25.87,25.87,0,0,0,6.69,6.75,10,10,0,0,0,1.28.57l1.69-1.71C62.32,90.31,61.81,90,61.32,89.66Z"/></g></g></svg>