<svg xmlns="http://www.w3.org/2000/svg" viewBox="0 0 109.84 109.84"><defs><style>.cls-1{fill:#2072b8;}.cls-2{fill:#5ab3d9;}.cls-3{fill:#3898c6;}.cls-4{fill:#b7d333;}.cls-5{opacity:0.2;}.cls-6{fill:#eceff0;}.cls-7{fill:#fff;}</style></defs><title>Asset 4</title><g id="Layer_2" data-name="Layer 2"><g id="Layer_5" data-name="Layer 5"><path class="cls-1" d="M97.09,43.21H95.56a30.58,30.58,0,0,0,1.1-9,33.79,33.79,0,0,0-65.9-11,21.45,21.45,0,0,0-7.48-1.31A23.32,23.32,0,0,0,0,45.4,23.08,23.08,0,0,0,22.88,68.63V57.88c0-10.6,17.79-15.42,34.33-15.42s34.32,4.82,34.32,15.42V68.65H98a12.73,12.73,0,0,0-.88-25.44Z"/><path class="cls-2" d="M27.46,57.88V99c0,5.94,13.1,10.75,29.34,10.83h.41C73.63,109.84,87,105,87,99V57.88Z"/><path class="cls-3" d="M57.21,57.88v52C73.63,109.84,87,105,87,99V57.88Z"/><path class="cls-4" d="M87,57.88c0,6-13.32,10.83-29.74,10.83S27.46,63.86,27.46,57.88,40.78,47,57.21,47,87,51.89,87,57.88"/><g class="cls-5"><path class="cls-6" d="M9.15,53a24.78,24.78,0,0,1,36.5-21.84A34.21,34.21,0,0,1,93,18.54a33.75,33.75,0,0,0-62.2,4.71,21.45,21.45,0,0,0-7.48-1.31A23.36,23.36,0,0,0,13,66.25,24.62,24.62,0,0,1,9.15,53Z"/></g><polygon class="cls-7" points="57.21 13.73 38.9 32.03 50.34 32.03 50.34 59.49 64.07 59.49 64.07 32.03 75.51 32.03 57.21 13.73"/></g></g></svg>