<svg xmlns="http://www.w3.org/2000/svg" viewBox="0 0 108.01 82.77"><defs><style>.cls-1{fill:#001a50;}.cls-1,.cls-2,.cls-8{fill-rule:evenodd;}.cls-2{opacity:0.5;}.cls-3{fill:#f5f5f5;}.cls-4{fill:#00bcf3;}.cls-5{fill:#791b7d;}.cls-6{fill:#0073c9;}.cls-7{fill:#d2d2d2;}.cls-8{fill:#f1f1f1;opacity:0.15;}.cls-9{fill:#fcd116;}.cls-10{fill:#ff8c00;opacity:0.3;isolation:isolate;}</style></defs><title>Asset 9</title><g id="Layer_2" data-name="Layer 2"><g id="Layer_5" data-name="Layer 5"><path class="cls-1" d="M77.28,78.23c0,2.48-10,4.54-22.44,4.54-12,0-22-2.06-22-4.54,0-2.94,10-5,22-5C67.3,73.22,77.28,75.29,77.28,78.23Z"/><path class="cls-2" d="M33.08,77.49H77C75.51,75,66.22,73.22,54.84,73.22,43.85,73.22,34.6,75,33.08,77.49Z"/><path class="cls-1" d="M105.93,75.21a2.22,2.22,0,0,0,2.08-2.1v-71A2.23,2.23,0,0,0,105.93,0H2.08A2.23,2.23,0,0,0,0,2.08v71a2.22,2.22,0,0,0,2.08,2.1Z"/><rect class="cls-3" x="6.43" y="5.21" width="95.19" height="57.35"/><polygon class="cls-4" points="11.49 53.41 11.09 51.76 29.81 46.74 45.44 36.8 64.16 35.97 79.37 25.99 98.51 25.16 98.51 26.82 79.75 27.65 64.54 37.62 45.84 38.45 30.63 48.4 11.49 53.41"/><polygon class="cls-5" points="11.09 53.82 10.31 52.16 25.53 44.67 34.9 33.04 50.51 29.72 59.88 18.08 75.48 14.36 75.48 16.02 60.65 19.33 51.28 30.96 35.68 34.28 26.7 45.92 11.09 53.82"/><polygon class="cls-6" points="11.87 53.41 11.49 51.76 26.3 49.26 38.8 41.36 53.62 43.01 66.1 34.69 81.35 36.39 80.95 38.05 66.49 36.39 54.01 44.67 39.18 43.01 26.7 50.93 11.87 53.41"/><rect class="cls-7" x="10.71" y="11.05" width="5.84" height="1.66"/><rect class="cls-7" x="10.71" y="18.5" width="5.84" height="2.07"/><rect class="cls-7" x="10.71" y="26.41" width="5.84" height="1.66"/><rect class="cls-7" x="10.71" y="33.86" width="5.84" height="2.11"/><rect class="cls-7" x="10.71" y="41.78" width="5.84" height="1.66"/><rect class="cls-7" x="10.71" y="55.89" width="87.8" height="1.66"/><path class="cls-8" d="M56.55,0H2.08A2.23,2.23,0,0,0,0,2.08v71a2.23,2.23,0,0,0,2.08,2.1h28Z"/><polygon class="cls-9" points="104.31 0 76.78 0 61.95 32.68 80.03 32.79 65.91 65.14 104.87 21.97 85.95 21.97 104.31 0"/><polygon class="cls-10" points="85.95 21.97 104.31 0 89.91 0 74.66 27.16 92.73 27.27 65.91 65.14 104.87 21.97 85.95 21.97"/></g></g></svg>