<svg xmlns="http://www.w3.org/2000/svg" viewBox="0 0 126.64 88.5"><defs><style>.cls-1{fill:#001a50;}.cls-1,.cls-2,.cls-8{fill-rule:evenodd;}.cls-2{opacity:0.5;}.cls-3{fill:#f5f5f5;}.cls-4{fill:#00bcf3;}.cls-5{fill:#791b7d;}.cls-6{fill:#0073c9;}.cls-7{fill:#d2d2d2;}.cls-8{fill:#f1f1f1;opacity:0.15;}.cls-9{fill:#a0a1a2;}.cls-10{fill:#b8d432;}.cls-11{fill:#7fba00;}.cls-12{fill:#fff;opacity:0.25;isolation:isolate;}</style></defs><title>Asset 8</title><g id="Layer_2" data-name="Layer 2"><g id="Layer_5" data-name="Layer 5"><path class="cls-1" d="M77.73,78.69c0,2.5-10,4.57-22.57,4.57C43.07,83.26,33,81.19,33,78.69c0-3,10-5,22.13-5C67.7,73.65,77.73,75.74,77.73,78.69Z"/><path class="cls-2" d="M33.28,78H77.49c-1.54-2.55-10.88-4.3-22.33-4.3C44.11,73.65,34.81,75.4,33.28,78Z"/><path class="cls-1" d="M106.56,75.66a2.24,2.24,0,0,0,2.09-2.12V2.09A2.24,2.24,0,0,0,106.56,0H2.09A2.24,2.24,0,0,0,0,2.09V73.54a2.24,2.24,0,0,0,2.09,2.12Z"/><rect class="cls-3" x="6.46" y="5.24" width="95.76" height="57.69"/><polygon class="cls-4" points="11.56 53.73 11.16 52.06 29.99 47.02 45.71 37.01 64.54 36.18 79.84 26.14 99.1 25.31 99.1 26.98 80.23 27.81 64.93 37.85 46.11 38.68 30.81 48.69 11.56 53.73"/><polygon class="cls-5" points="11.16 54.14 10.38 52.47 25.68 44.93 35.11 33.23 50.8 29.9 60.23 18.18 75.93 14.44 75.93 16.11 61.02 19.44 51.59 31.14 35.89 34.49 26.86 46.19 11.16 54.14"/><polygon class="cls-6" points="11.94 53.73 11.56 52.06 26.46 49.55 39.03 41.6 53.93 43.27 66.49 34.9 81.83 36.6 81.44 38.27 66.89 36.6 54.33 44.93 39.41 43.27 26.86 51.23 11.94 53.73"/><rect class="cls-7" x="10.77" y="11.11" width="5.87" height="1.67"/><rect class="cls-7" x="10.77" y="18.61" width="5.87" height="2.08"/><rect class="cls-7" x="10.77" y="26.57" width="5.87" height="1.67"/><rect class="cls-7" x="10.77" y="34.06" width="5.87" height="2.12"/><rect class="cls-7" x="10.77" y="42.02" width="5.87" height="1.67"/><rect class="cls-7" x="10.77" y="56.22" width="88.32" height="1.67"/><path class="cls-8" d="M56.89,0H2.09A2.24,2.24,0,0,0,0,2.09V73.54a2.24,2.24,0,0,0,2.09,2.12H30.25Z"/><path class="cls-9" d="M125.89,82.94,109.78,55.05V43.75h.29a3.49,3.49,0,1,0,0-7H92.5a3.49,3.49,0,1,0,0,7h.29v11.3L76.69,82.94C74.92,86,76.36,88.5,79.9,88.5h42.78C126.21,88.5,127.65,86,125.89,82.94Z"/><polygon class="cls-10" points="89.95 70.94 83.31 82.44 119.27 82.44 112.62 70.94 89.95 70.94"/><path class="cls-11" d="M102.14,75.61a3.24,3.24,0,0,0,2.92-4.67H99.22a3.19,3.19,0,0,0-.33,1.42A3.26,3.26,0,0,0,102.14,75.61Z"/><circle class="cls-11" cx="106.17" cy="78.11" r="1.59"/><path class="cls-12" d="M76.69,82.94l16.1-27.89V43.75H92.5a3.49,3.49,0,1,1,0-7h7.57V55L91.58,88.5H79.9C76.36,88.5,74.92,86,76.69,82.94Z"/></g></g></svg>