<svg xmlns="http://www.w3.org/2000/svg" viewBox="0 0 117.86 104.37"><defs><style>.cls-1{fill:#59b4d9;}.cls-2{fill:#a0a1a2;}.cls-3,.cls-4,.cls-6{fill:#fff;}.cls-3{opacity:0.2;}.cls-3,.cls-6,.cls-7,.cls-9{isolation:isolate;}.cls-5{opacity:0.25;}.cls-6{opacity:0.85;}.cls-7{fill:#5ab2d7;opacity:0.3;}.cls-8{fill:#ffc800;}.cls-9{fill:#1e1e1e;opacity:0.5;}.cls-10{fill:#ee8201;}</style></defs><title>Asset 7</title><g id="Layer_2" data-name="Layer 2"><g id="Layer_5" data-name="Layer 5"><path class="cls-1" d="M0,67.37A3.33,3.33,0,0,0,3.33,70.7H79.59a3.33,3.33,0,0,0,3.33-3.33V15.42H0Z"/><path class="cls-2" d="M79.59,0H3.33A3.33,3.33,0,0,0,0,3.33V21H82.92V3.33A3.34,3.34,0,0,0,79.59,0"/><path class="cls-3" d="M3.34,0A3.33,3.33,0,0,0,0,3.33v64A3.33,3.33,0,0,0,3.34,70.7H7L72.34,0Z"/><rect class="cls-4" x="21.32" y="7.93" width="55.84" height="6.54"/><path class="cls-1" d="M18.76,11.08A8.09,8.09,0,1,1,10.67,3a8.09,8.09,0,0,1,8.09,8.09"/><polygon class="cls-4" points="9.81 11.99 13.48 15.87 11.49 15.87 6.58 11.19 11.47 6.52 13.46 6.52 9.81 10.37 18.75 10.37 18.75 11.99 9.81 11.99"/><path class="cls-5" d="M10.13,6.63A3.32,3.32,0,0,0,6.8,10V70.54H79.59a3.33,3.33,0,0,0,3.33-3.32V6.63Z"/><path class="cls-1" d="M9.15,76a3.34,3.34,0,0,0,3.33,3.33H88.74A3.33,3.33,0,0,0,92.06,76V24H9.15Z"/><path class="cls-2" d="M88.74,8.57H12.48A3.33,3.33,0,0,0,9.15,11.9V29.53H92.06V11.9a3.33,3.33,0,0,0-3.32-3.33"/><path class="cls-3" d="M12.49,8.57A3.33,3.33,0,0,0,9.16,11.9V76a3.34,3.34,0,0,0,3.33,3.33h3.63L81.48,8.57Z"/><rect class="cls-4" x="30.47" y="16.5" width="55.84" height="6.54"/><path class="cls-1" d="M27.9,19.66a8.09,8.09,0,1,1-8.09-8.09,8.09,8.09,0,0,1,8.09,8.09"/><polygon class="cls-4" points="18.96 20.57 22.63 24.44 20.64 24.44 15.73 19.77 20.62 15.1 22.61 15.1 18.96 18.95 27.9 18.95 27.9 20.57 18.96 20.57"/><path class="cls-5" d="M19.28,15.36A3.32,3.32,0,0,0,16,18.68v60.6H88.74A3.33,3.33,0,0,0,92.06,76V15.36Z"/><path class="cls-1" d="M18.14,84.91a3.32,3.32,0,0,0,3.32,3.33H97.72a3.33,3.33,0,0,0,3.33-3.33V33H18.14Z"/><path class="cls-2" d="M97.72,17.54H21.46a3.32,3.32,0,0,0-3.32,3.33V38.49h82.91V20.87a3.33,3.33,0,0,0-3.33-3.33"/><path class="cls-3" d="M21.48,17.54a3.33,3.33,0,0,0-3.33,3.33v64a3.33,3.33,0,0,0,3.33,3.33H25.1l65.37-70.7Z"/><rect class="cls-4" x="39.46" y="25.46" width="55.84" height="6.54"/><path class="cls-1" d="M36.89,28.62a8.09,8.09,0,1,1-8.09-8.09,8.09,8.09,0,0,1,8.09,8.09"/><polygon class="cls-4" points="27.95 29.53 31.62 33.41 29.62 33.41 24.72 28.73 29.61 24.06 31.59 24.06 27.95 27.91 36.89 27.91 36.89 29.53 27.95 29.53"/><path class="cls-6" d="M95.26,58.22a12.91,12.91,0,0,1,10.2,1.57,13.64,13.64,0,0,1,6.12,8.32,11.68,11.68,0,0,1,.47,3.29,13.58,13.58,0,0,1-10.36,13.19,13.75,13.75,0,0,1-10.83-2,14.49,14.49,0,0,1-3.45-3.45,14.18,14.18,0,0,1-2-4.4,11.75,11.75,0,0,1-.47-3.3A13.58,13.58,0,0,1,95.26,58.22"/><path class="cls-7" d="M109.86,64A35.1,35.1,0,0,1,89.29,81.29a10.83,10.83,0,0,0,1.57,1.26,13,13,0,0,0,10.83,2A13.58,13.58,0,0,0,112.05,71.4a11.68,11.68,0,0,0-.47-3.29A13.19,13.19,0,0,0,109.86,64"/><path class="cls-8" d="M93.85,52.41A19.47,19.47,0,0,0,79.09,71.25,23.79,23.79,0,0,0,79.72,76a20,20,0,0,0,2,5L66.84,95.74a5.33,5.33,0,0,0,0,7.22,5.14,5.14,0,0,0,7.07,0L88.82,88.2a19,19,0,0,0,14.29,2A19.47,19.47,0,0,0,117.86,71.4a23.79,23.79,0,0,0-.63-4.71,19.36,19.36,0,0,0-8.79-11.93A19.81,19.81,0,0,0,93.85,52.41Zm11.61,7.38a13.64,13.64,0,0,1,6.12,8.32,11.68,11.68,0,0,1,.47,3.29,13.58,13.58,0,0,1-10.36,13.19,13.75,13.75,0,0,1-10.83-2,14.49,14.49,0,0,1-3.45-3.45,14.18,14.18,0,0,1-2-4.4,11.75,11.75,0,0,1-.47-3.3A13.58,13.58,0,0,1,95.26,58.22,13,13,0,0,1,105.46,59.79Z"/><path class="cls-9" d="M81.6,81l-1.41,1.41a3.55,3.55,0,0,0,.47,1.1A23.43,23.43,0,0,0,86.31,89a3.18,3.18,0,0,0,.94.62l.16-.15,1.41-1.26c-.47-.31-.78-.47-1.25-.78a19.4,19.4,0,0,1-5-5C82.23,81.92,82.07,81.61,81.6,81Z"/><polygon class="cls-10" points="101.12 61.53 100.37 73.03 96.83 73.03 96.08 61.53 101.12 61.53"/><circle class="cls-10" cx="98.48" cy="78.04" r="3.18"/></g></g></svg>