<svg xmlns="http://www.w3.org/2000/svg" viewBox="0 0 115.61 108.62"><defs><style>.cls-1{fill:#3997c4;}.cls-2{fill:#5ab2d7;}.cls-3{fill:#fff;}.cls-4{fill:#7eb800;}.cls-5{fill:#b6d233;}.cls-6{fill:#791b7d;}.cls-7{fill:none;stroke:#791b7d;stroke-miterlimit:10;stroke-width:5.51px;}</style></defs><title>Asset 5</title><g id="Layer_2" data-name="Layer 2"><g id="Layer_5" data-name="Layer 5"><path class="cls-1" d="M0,52.41V99.73c0,4.91,11,8.89,24.56,8.89V52.41Z"/><path class="cls-2" d="M24.22,108.62h.34c13.56,0,24.56-4,24.56-8.89V52.41H24.22Z"/><path class="cls-3" d="M49.12,52.41c0,4.92-11,8.9-24.56,8.9S0,57.33,0,52.41s11-8.89,24.56-8.89,24.56,4,24.56,8.89"/><path class="cls-4" d="M44.1,51.9c0,3.24-8.75,5.87-19.54,5.87S5,55.14,5,51.9,13.77,46,24.56,46,44.1,48.66,44.1,51.9"/><path class="cls-5" d="M40,55.49c2.56-1,4.1-2.24,4.1-3.59,0-3.24-8.75-5.87-19.54-5.87S5,48.66,5,51.9c0,1.35,1.54,2.6,4.1,3.59,3.57-1.39,9.15-2.28,15.44-2.28S36.43,54.1,40,55.49"/><path class="cls-1" d="M66.49,52.41V99.73c0,4.91,11,8.89,24.56,8.89V52.41Z"/><path class="cls-2" d="M90.72,108.62h.33c13.57,0,24.56-4,24.56-8.89V52.41H90.72Z"/><path class="cls-3" d="M115.61,52.41c0,4.92-11,8.9-24.56,8.9s-24.56-4-24.56-8.9,11-8.89,24.56-8.89,24.56,4,24.56,8.89"/><path class="cls-4" d="M110.59,51.9c0,3.24-8.75,5.87-19.54,5.87S71.51,55.14,71.51,51.9,80.26,46,91.05,46s19.54,2.63,19.54,5.87"/><path class="cls-5" d="M106.5,55.49c2.55-1,4.09-2.24,4.09-3.59,0-3.24-8.75-5.87-19.54-5.87S71.52,48.66,71.52,51.9c0,1.35,1.53,2.6,4.09,3.59,3.57-1.39,9.15-2.28,15.44-2.28s11.87.89,15.45,2.28"/><polygon class="cls-6" points="102.48 27.18 90.12 39.55 77.76 27.18 102.48 27.18"/><path class="cls-7" d="M25.91,33S25.53,2.75,58.46,2.75c32.62,0,31.66,25.64,31.66,25.64"/></g></g></svg>